<?xml version="1.0" encoding="iso-8859-1"?>
<!-- Generator: Adobe Illustrator 19.0.0, SVG Export Plug-In . SVG Version: 6.00 Build 0)  -->
<svg version="1.1" id="Capa_1" xmlns="http://www.w3.org/2000/svg" xmlns:xlink="http://www.w3.org/1999/xlink" x="0px" y="0px"
	 viewBox="0 0 512 512" style="enable-background:new 0 0 512 512;" xml:space="preserve">
<g>
	<g>
		<path d="M329.023,81.457c-0.287-5.516-4.992-9.776-10.506-9.468c-5.515,0.286-9.754,4.99-9.467,10.506
			c0.049,0.937,0.073,1.883,0.073,2.81c0,9.314-2.461,18.499-7.117,26.562c-2.762,4.783-1.123,10.899,3.659,13.661
			c1.575,0.909,3.295,1.342,4.991,1.342c3.456,0,6.817-1.794,8.67-5.001c6.409-11.1,9.797-23.743,9.797-36.563
			C329.123,84.035,329.089,82.74,329.023,81.457z"/>
	</g>
</g>
<g>
	<g>
		<path d="M209.992,111.866c-4.656-8.063-7.117-17.247-7.117-26.562c0-9.313,2.461-18.498,7.117-26.563
			c2.762-4.782,1.123-10.898-3.66-13.66c-4.782-2.762-10.898-1.122-13.66,3.66c-6.409,11.101-9.797,23.743-9.797,36.563
			s3.388,25.464,9.797,36.563c1.853,3.208,5.214,5.002,8.67,5.002c1.696,0,3.416-0.433,4.991-1.342
			C211.115,122.765,212.754,116.649,209.992,111.866z"/>
	</g>
</g>
<g>
	<g>
		<path d="M255.999,52.18c-18.265,0-33.124,14.859-33.124,33.125c0.001,18.265,14.86,33.125,33.124,33.125
			c18.266,0,33.125-14.859,33.125-33.125S274.265,52.18,255.999,52.18z M255.999,98.43c-7.236,0-13.124-5.888-13.124-13.125
			c0.001-7.238,5.888-13.125,13.124-13.125c7.237,0,13.125,5.888,13.125,13.125S263.236,98.43,255.999,98.43z"/>
	</g>
</g>
<g>
	<g>
		<path d="M255.999,193.43c-18.265,0-33.124,14.859-33.124,33.124c0,18.266,14.859,33.125,33.124,33.125
			c18.266,0,33.125-14.859,33.125-33.125C289.125,208.289,274.265,193.43,255.999,193.43z M255.999,239.679
			c-7.236,0-13.124-5.888-13.124-13.125c0-7.236,5.888-13.124,13.124-13.124c7.237,0,13.125,5.888,13.125,13.124
			C269.125,233.791,263.237,239.679,255.999,239.679z"/>
	</g>
</g>
<g>
	<g>
		<path d="M255.999,152.804c-40.666,0-73.75,33.084-73.75,73.75c0,40.666,33.084,73.75,73.75,73.75
			c40.666,0,73.75-33.084,73.75-73.75C329.75,185.888,296.665,152.804,255.999,152.804z M255.999,280.304
			c-29.638,0-53.75-24.112-53.75-53.75s24.112-53.75,53.75-53.75s53.75,24.112,53.75,53.75S285.637,280.304,255.999,280.304z"/>
	</g>
</g>
<g>
	<g>
		<path d="M255.999,368.384c-16.912,0-30.672,13.76-30.672,30.673c0,16.912,13.76,30.672,30.672,30.672
			c16.912,0,30.672-13.76,30.672-30.672C286.671,382.144,272.912,368.384,255.999,368.384z M255.999,409.729
			c-5.885,0-10.672-4.787-10.672-10.672s4.787-10.673,10.672-10.673s10.672,4.788,10.672,10.673S261.884,409.729,255.999,409.729z"
			/>
	</g>
</g>
<g>
	<g>
		<path d="M255.999,332.068c-36.938,0-66.988,30.051-66.988,66.988c0,36.936,30.051,66.987,66.988,66.987
			s66.988-30.051,66.988-66.987C322.988,362.119,292.937,332.068,255.999,332.068z M255.999,446.044
			c-25.909,0-46.988-21.078-46.988-46.987s21.079-46.988,46.988-46.988c25.909,0,46.988,21.079,46.988,46.988
			S281.909,446.044,255.999,446.044z"/>
	</g>
</g>
<g>
	<g>
		<path d="M319.499,49.041l-0.163-0.281c-2.752-4.788-8.866-6.438-13.653-3.685c-4.788,2.753-6.438,8.866-3.685,13.653l0.119,0.206
			c1.844,3.233,5.221,5.048,8.695,5.048c1.674,0,3.37-0.421,4.93-1.307C320.544,59.947,322.226,53.844,319.499,49.041z"/>
	</g>
</g>
<g>
	<g>
		<path d="M56.236,492H56c-5.522,0-10,4.478-10,10c0,5.522,4.478,10,10,10h0.235c5.522,0,10-4.478,10-10
			C66.236,496.478,61.758,492,56.236,492z"/>
	</g>
</g>
<g>
	<g>
		<path d="M427.034,492H386V10c0-5.522-4.477-10-10-10H135.999c-5.522,0-10,4.478-10,10v482H84.966c-5.522,0-10,4.478-10,10
			c0,5.522,4.478,10,10,10h342.067c5.523,0,10-4.478,10-10C437.034,496.478,432.556,492,427.034,492z M366,492H145.999V20H366V492z"
			/>
	</g>
</g>
<g>
	<g>
		<path d="M456,492h-0.236c-5.523,0-10,4.478-10,10c0,5.522,4.477,10,10,10H456c5.522,0,10-4.478,10-10
			C466,496.478,461.522,492,456,492z"/>
	</g>
</g>
<g>
	<g>
		<path d="M101.25,226.554c0-9.422,2.49-18.715,7.2-26.874c2.762-4.783,1.123-10.898-3.66-13.66
			c-4.785-2.762-10.899-1.122-13.66,3.66c-6.464,11.195-9.88,23.946-9.88,36.874c0,12.929,3.416,25.68,9.88,36.876
			c1.852,3.208,5.213,5.002,8.67,5.002c1.696,0,3.415-0.433,4.99-1.342c4.782-2.761,6.422-8.877,3.66-13.66
			C103.74,245.271,101.25,235.977,101.25,226.554z"/>
	</g>
</g>
<g>
	<g>
		<path d="M66.236,226.553c0-23.71,9.233-46,25.999-62.765c3.905-3.905,3.905-10.237,0-14.143c-3.905-3.903-10.235-3.904-14.143,0
			c-20.543,20.542-31.856,47.855-31.856,76.907c0,29.053,11.313,56.366,31.856,76.908c1.953,1.954,4.512,2.931,7.072,2.931
			s5.119-0.977,7.071-2.929c3.905-3.905,3.905-10.237,0-14.143C75.469,272.554,66.236,250.264,66.236,226.553z"/>
	</g>
</g>
<g>
	<g>
		<path d="M421.105,189.68c-2.761-4.782-8.876-6.421-13.66-3.66c-4.783,2.762-6.422,8.877-3.66,13.66
			c4.71,8.159,7.2,17.452,7.2,26.874c0,9.423-2.49,18.717-7.2,26.876c-2.762,4.783-1.122,10.899,3.66,13.66
			c1.575,0.909,3.294,1.342,4.99,1.342c3.456,0,6.818-1.794,8.67-5.002c6.464-11.196,9.88-23.947,9.88-36.876
			C430.985,213.626,427.569,200.875,421.105,189.68z"/>
	</g>
</g>
<g>
	<g>
		<path d="M434.145,149.647c-3.906-3.904-10.236-3.904-14.143,0c-3.905,3.905-3.905,10.237,0,14.143
			C436.766,180.554,446,202.844,446,226.554c0,23.71-9.233,46.001-25.998,62.766c-3.905,3.905-3.905,10.237,0,14.143
			c1.953,1.952,4.512,2.929,7.071,2.929c2.559,0,5.118-0.977,7.071-2.929C454.686,282.919,466,255.607,466,226.554
			C466,197.502,454.686,170.19,434.145,149.647z"/>
	</g>
</g>
<g>
</g>
<g>
</g>
<g>
</g>
<g>
</g>
<g>
</g>
<g>
</g>
<g>
</g>
<g>
</g>
<g>
</g>
<g>
</g>
<g>
</g>
<g>
</g>
<g>
</g>
<g>
</g>
<g>
</g>
</svg>
