<svg height="512" viewBox="0 0 512 512" width="512" xmlns="http://www.w3.org/2000/svg"><g><path d="m328 122c-11.787-.135-10.315 23.71-1.086 23.927 13.115 2.121 11.937-24.992 1.086-23.927z"/><path d="m448 384a56.086 56.086 0 0 0 -10.757 1.047l-32.043-91.547c33.415-24.582 7.706-70.191-28.517-62.191-12.555 2.332-20.966 12.614-29.172 20.568-19.974 9.564-36.8 5.331-50.882-8.353.585-7.046 1.014-14.022 1.271-20.852a102.558 102.558 0 0 0 33.764-17.619 7.964 7.964 0 0 0 3.753-3.094c33.127-27.982 44.5-77.4 27.084-117.268 35.415 5.872 3.225-32.772-7.1-41.637a114.25 114.25 0 0 0 -44.3-24.523c-71.27-20.91-194.369 35.627-153.033 131.28 5.914 12.95 18.571 47 29.815 38.136a102.011 102.011 0 0 0 29.157 25.316c-12.066 17.955-53.856 87.938-40.807 93.007-.979 8.744.115 18.553 3.3 29.319-5.312 10.683-11.431 22.858-17.757 35.4a8.2 8.2 0 0 0 -1.5 2.974c-6.676 13.237-13.876 27.457-20.742 41.08-9.835-27.679-41.506-51.193-71.572-45.952-7.036 3.679-3.936 14.942 4.038 14.909-42.882.141-68.988 45.763-49.354 82.445 22.628 41.377 81.092 38.145 100.207-3.034a13.5 13.5 0 0 0 1.971.5c11.186 11.406 40.357 35.779 50.109 29.98 9.473-5.657 11.872-20.244 7.162-30.809l111.435.6c70.3-.406 62.172 5.657 69.625-14.951l27.274-75 22.045-11.021 9.673 27.641c-58.93 33.3-24.118 119.365 40.723 103.647 62.86-19.343 49.971-108.279-14.87-109.998zm-77.375-132.29c22.871-17.594 47.239 12.418 25.556 28.571-6.206 3.732-14.425 2.842-21.031-1.612-.644-9.181-3.8-16.572-9.567-22.362a46.3 46.3 0 0 1 5.042-4.597zm-22.3 17.2a49.174 49.174 0 0 0 5.12-2.082c3.292 2.937 5.059 6.555 5.629 11.521-28.937 12.635-48.75 21.514-75.083 12.41-52.144-21.951-43.463-74.471-1.291-38.135.154.137.314.273.468.4 19.932 19.102 39.232 24.768 65.154 15.89zm-3.9 178.946c-10.309.034-32.14-.058-42.463-.131a32.806 32.806 0 0 1 -2.18-9.644c6.525-1.326 14.725-2.381 21.973-4 7.064 4.37 20.688 3.119 22.67 13.779zm-98.4-57.831c4.246 2.237 9.5 4.873 13.8 7.02a8.335 8.335 0 0 0 3.375 3.655c4.3 9.822 13.385 29.911 20.913 41.964a24.859 24.859 0 0 0 .983 4.978l-93.76-.507a472.942 472.942 0 0 0 54.685-57.106zm60.675 30.581c-5.02.83-10.15 1.688-15.011 2.925-5.064-9.707-10.161-20.942-13.19-27.81l31.838-21.231c2.491 13.809 4.6 29.744 7.093 44.169-3.369.725-6.99 1.33-10.73 1.947zm-38.49-37.256c-3.293-1.645-8.114-4.046-12.215-6.165a303.977 303.977 0 0 0 21.939-33.409q11.207 9.075 22.407 18.148zm78.935-223.389a8 8 0 0 0 -10.658.739 2.569 2.569 0 0 1 -2.251-.2c-17.473-13.691-21.394 18.09 2.9 16.345a86.647 86.647 0 0 1 -10.247 11.28 220.173 220.173 0 0 1 -51.906-32.756c11.453-8.033 17.176-21.382 23.418-33.489 9.279-18.416 27.261-31.5 47.147-35.778 11.417 22.298 12.12 50.89 1.593 73.859zm-176.392-72.528c33.585-62.626 144.074-80.584 186.171-18.769-36.751 1.528-64.338 24.091-78.384 56.921-12.348 27.092-34.772 24.4-62.449 27.257-13.848 1.826-23.35 6.318-31.784 14.675-11.568-19.944-26.575-53.991-13.554-80.084zm28.107 88.533c15.01-11.822 41.93-5.891 60.579-12.932a236.17 236.17 0 0 0 52.915 35.912 86.281 86.281 0 0 1 -19.223 8.454c-22.236-8.157-43.45-9.893-62.631-5.08a86.152 86.152 0 0 1 -31.64-26.354zm34.195 42.2c15.009-4 31.077-3.236 48.925 2.331-.123 3.642-.305 7.339-.527 11.063-11.851-8.786-32.692-10.144-42.988.975-21.208 22.746 9.336 59.648 33.4 70.551-1.835 9-4 18.591-6.419 28.159-46 6.769-46.287-32.178-72.766-39.134a395.157 395.157 0 0 1 40.375-73.944zm-37.768 121.659c1.832-9.389-5.467-22.531-3.247-30.721 6.852 3.8 11.629 11.818 17.243 18.153 12 13.853 29.492 20.984 47.355 20.957-11.261 17.715-26.557 36.87-41.485 53.146-13.869-9.437-23.012-17.981-36.735-27.852 6.064-12.036 11.867-23.6 16.869-33.683zm-30.069 59.842 5.9-11.687c11.4 8.365 20.295 16.362 32.885 25.135a389.707 389.707 0 0 1 -35.291 32.085c-4.86-3.016-11.5-6.622-17.321-9.964a7.956 7.956 0 0 0 -2.732-2.736c5.355-10.65 11.005-21.838 16.559-32.833zm-93.218 80.333c-37.379-.573-52.791-44.957-27.537-68.986 27.336-25.446 70.312-3.75 67.378 32.447-.03 0-17.981-5.337-29.136-8.632-7.9-3.128-20.39-5.764-18.167 8.06.84 6.958 38.276 13.244 42.755 15.912a40.034 40.034 0 0 1 -35.293 21.199zm96.274-2.9c-12.093-6.261-20.963-13.469-30.5-22.87q1.585-3.181 3.252-6.517c5.319 3.153 13.076 7.315 18.794 10.8a8.017 8.017 0 0 0 4.279 3.935c2.293 4.616 5.171 9.273 4.175 14.652zm212.148-116.255c-4.274-1.526-26.074 68.016-27.9 70.308a35.437 35.437 0 0 0 -16.888-9.51 8.419 8.419 0 0 0 -2.025-3.337c-12.192-77.015-2.813-49.446-50.71-91.095 1.525-6.377 2.95-12.718 4.241-18.961 40.177 8.549 57.077-9.638 80.623-15.377 6.633 4.034 14.563 6.431 22.263 5.695l17.119 48.915zm67.578 119.155c-42.166-1.1-53.962-54.052-20.492-74.335.024.03 7.7 22.039 11.248 32.139.752 6.761 9.959 16.779 16.837 4.718 2.689-3.281-12.563-38.577-12.986-42.148 57.531-4.352 60.876 77.263 5.393 79.626z"/></g></svg>