<?xml version="1.0" encoding="iso-8859-1"?>
<!-- Generator: Adobe Illustrator 16.0.0, SVG Export Plug-In . SVG Version: 6.00 Build 0)  -->
<!DOCTYPE svg PUBLIC "-//W3C//DTD SVG 1.1//EN" "http://www.w3.org/Graphics/SVG/1.1/DTD/svg11.dtd">
<svg version="1.1" id="Capa_1" xmlns="http://www.w3.org/2000/svg" xmlns:xlink="http://www.w3.org/1999/xlink" x="0px" y="0px"
	 width="68.119px" height="68.119px" viewBox="0 0 68.119 68.119" style="enable-background:new 0 0 68.119 68.119;"
	 xml:space="preserve">
<g>
	<g>
		<path d="M57.12,20.099c2.183,0.584,4.605-3.725,5.413-6.741c0.808-3.018-0.304-3.602-2.484-4.186
			c-2.179-0.584-4.604-0.947-5.41,2.069C53.828,14.26,54.939,19.515,57.12,20.099z"/>
		<path d="M52.745,29.449c-3.125,0-5.657-0.404-5.657,1.403c0,1.804,2.532,5.132,5.657,5.135c3.125,0,5.657-3.331,5.657-5.135
			C58.402,29.045,55.87,29.452,52.745,29.449z"/>
		<path d="M48.37,20.099c2.183-0.584,3.291-5.839,2.483-8.857c-0.812-3.018-3.231-2.653-5.412-2.069
			c-2.179,0.584-3.292,1.168-2.482,4.186C43.767,16.376,46.189,20.683,48.37,20.099z"/>
		<path d="M38.881,19.125c-1.733,1-2.011,3.209-0.632,5.605c1.385,2.395,6.243,3.529,7.977,2.529
			c1.731-0.999-0.324-3.752-1.706-6.147C43.14,18.717,40.616,18.126,38.881,19.125z"/>
		<path d="M66.611,19.125c-1.733-0.999-4.256-0.41-5.639,1.987c-1.385,2.393-3.442,5.148-1.708,6.147
			c1.733,1,6.594-0.134,7.977-2.529C68.621,22.334,68.346,20.129,66.611,19.125z"/>
		<path d="M19.748,43.457c2.182,0.584,4.604-3.725,5.412-6.74c0.809-3.018-0.304-3.602-2.483-4.186
			c-2.18-0.584-4.604-0.947-5.412,2.068C16.457,37.618,17.566,42.873,19.748,43.457z"/>
		<path d="M15.373,52.808c-3.125,0-5.657-0.404-5.657,1.402c0,1.805,2.532,5.133,5.657,5.135c3.125,0,5.657-3.33,5.657-5.135
			C21.03,52.403,18.498,52.81,15.373,52.808z"/>
		<path d="M10.998,43.457c2.182-0.584,3.292-5.839,2.483-8.857c-0.811-3.018-3.232-2.652-5.412-2.068
			c-2.18,0.584-3.292,1.167-2.483,4.186C6.394,39.734,8.816,44.041,10.998,43.457z"/>
		<path d="M1.508,42.483c-1.734,0.999-2.011,3.209-0.631,5.604c1.383,2.396,6.243,3.528,7.977,2.529
			c1.731-0.999-0.325-3.752-1.708-6.147C5.767,42.075,3.244,41.484,1.508,42.483z"/>
		<path d="M29.239,42.483c-1.734-0.999-4.257-0.41-5.639,1.986c-1.384,2.394-3.441,5.148-1.707,6.147
			c1.733,0.999,6.593-0.134,7.977-2.529C31.25,45.692,30.972,43.487,29.239,42.483z"/>
	</g>
</g>
<g>
</g>
<g>
</g>
<g>
</g>
<g>
</g>
<g>
</g>
<g>
</g>
<g>
</g>
<g>
</g>
<g>
</g>
<g>
</g>
<g>
</g>
<g>
</g>
<g>
</g>
<g>
</g>
<g>
</g>
</svg>
