<?xml version="1.0" encoding="iso-8859-1"?>
<!-- Generator: Adobe Illustrator 19.0.0, SVG Export Plug-In . SVG Version: 6.00 Build 0)  -->
<svg version="1.1" id="Capa_1" xmlns="http://www.w3.org/2000/svg" xmlns:xlink="http://www.w3.org/1999/xlink" x="0px" y="0px"
	 viewBox="0 0 496 496" style="enable-background:new 0 0 496 496;" xml:space="preserve">
<g>
	<g>
		<g>
			<path d="M447.82,390.192c-5.376-32.232-27.976-58.68-58.976-69.016l-68.84-22.944V288h-16v14.776
				c-1.456,4.016-11.24,25.224-56,25.224c-44.376,0-54.416-21.008-56-25.288V288h-16v10.232l-68.832,22.944
				c-31,10.336-53.6,36.784-58.976,69.016L30.556,496h434.888L447.82,390.192z M344.004,336c4.416,0,8,3.584,8,8
				c0,4.416-3.584,8-8,8c-4.416,0-8-3.584-8-8C336.004,339.584,339.588,336,344.004,336z M344.004,376c0,4.416-3.584,8-8,8
				c-4.416,0-8-3.584-8-8c0-4.416,3.584-8,8-8C340.42,368,344.004,371.584,344.004,376z M179.732,313.856
				C186.164,325.024,203.588,344,248.004,344s61.84-18.976,68.272-30.144l21.352,7.112c-10.128,2.816-17.624,12.024-17.624,23.032
				c0,4.296,1.224,8.272,3.208,11.768c-6.712,4.256-11.208,11.712-11.208,20.232c-13.232,0-24,10.768-24,24
				c-11.736,0-21.496,8.48-23.56,19.632c-5.024-2.288-10.568-3.632-16.44-3.632s-11.416,1.344-16.44,3.632
				C229.5,408.48,219.74,400,208.004,400c0-13.232-10.768-24-24-24c0-8.52-4.496-15.976-11.208-20.232
				c1.984-3.496,3.208-7.472,3.208-11.768c0-11.008-7.496-20.216-17.624-23.032L179.732,313.856z M320.004,400c0,4.416-3.584,8-8,8
				c-4.416,0-8-3.584-8-8c0-4.416,3.584-8,8-8C316.42,392,320.004,395.584,320.004,400z M296.004,424c0,4.416-3.584,8-8,8
				c-4.416,0-8-3.584-8-8c0-4.416,3.584-8,8-8C292.42,416,296.004,419.584,296.004,424z M216.004,424c0,4.416-3.584,8-8,8
				s-8-3.584-8-8c0-4.416,3.584-8,8-8S216.004,419.584,216.004,424z M192.004,400c0,4.416-3.584,8-8,8s-8-3.584-8-8
				c0-4.416,3.584-8,8-8S192.004,395.584,192.004,400z M168.004,376c0,4.416-3.584,8-8,8s-8-3.584-8-8c0-4.416,3.584-8,8-8
				S168.004,371.584,168.004,376z M152.004,336c4.416,0,8,3.584,8,8c0,4.416-3.584,8-8,8s-8-3.584-8-8
				C144.004,339.584,147.588,336,152.004,336z M104.764,480H49.452l3.872-23.272l53.104,6.64L104.764,480z M120.852,480l7.12-71.2
				l-15.92-1.592l-4.024,40.24l-52.064-6.504l8.016-48.112c4.392-26.376,22.88-48.016,48.248-56.48l20.864-6.952
				c-3.144,4.056-5.088,9.08-5.088,14.6c0,8.52,4.496,15.976,11.208,20.232c-1.984,3.496-3.208,7.472-3.208,11.768
				c0,13.232,10.768,24,24,24c0,13.232,10.768,24,24,24c0,13.232,10.768,24,24,24c0.28,0,0.544-0.072,0.824-0.08
				c-0.536,2.608-0.824,5.312-0.824,8.08c0,9.04,3.128,17.296,8.208,24H120.852z M248.004,480c-13.232,0-24-10.768-24-24
				s10.768-24,24-24s24,10.768,24,24S261.236,480,248.004,480z M383.964,407.2l-15.92,1.592l7.12,71.2h-95.36
				c5.072-6.696,8.2-14.952,8.2-23.992c0-2.768-0.288-5.472-0.824-8.08c0.28,0.008,0.544,0.08,0.824,0.08c13.232,0,24-10.768,24-24
				c13.232,0,24-10.768,24-24c13.232,0,24-10.768,24-24c0-4.296-1.224-8.272-3.208-11.768c6.712-4.256,11.208-11.712,11.208-20.232
				c0-5.52-1.944-10.544-5.088-14.6l20.864,6.952c25.368,8.464,43.856,30.104,48.256,56.472l8.016,48.112l-52.064,6.504
				L383.964,407.2z M391.244,480l-1.664-16.632l53.104-6.64L446.556,480H391.244z"/>
			<path d="M147.54,215.552c4.08,14.04,11.616,26.912,22.24,37.536l31.192,31.192c7.552,7.552,17.6,11.72,28.288,11.72h37.488
				c10.688,0,20.736-4.168,28.288-11.72l31.192-31.192c10.624-10.624,18.152-23.496,22.24-37.536
				c19.936-2.256,35.536-19.024,35.536-39.552c0-9.04-3.128-17.296-8.208-24h64.208c13.232,0,24-10.768,24-24s-10.768-24-24-24
				h-73.192C358.948,45.384,308.74,0,248.004,0c-66.168,0-120,53.832-120,120v24.208c-9.656,7.312-16,18.784-16,31.792
				C112.004,196.528,127.604,213.296,147.54,215.552z M336.004,190.856c0,19.24-7.496,37.312-21.088,50.92l-31.192,31.192
				c-4.536,4.536-10.56,7.032-16.976,7.032H229.26c-6.416,0-12.448-2.496-16.976-7.032l-31.192-31.192
				c-13.592-13.6-21.088-31.68-21.088-50.912V152h176V190.856z M208.812,136c3.72-18.232,19.872-32,39.192-32
				s35.472,13.768,39.192,32H208.812z M368.004,120h72c4.416,0,8,3.584,8,8s-3.584,8-8,8h-72V120z M368.004,176
				c0,10.552-6.896,19.44-16.376,22.64c0.224-2.576,0.376-5.16,0.376-7.784v-37.384C361.292,156.784,368.004,165.584,368.004,176z
				 M144.004,120c0-57.344,46.656-104,104-104s104,46.656,104,104v16h-48.64c-3.904-27.088-27.208-48-55.36-48
				s-51.456,20.912-55.36,48h-48.64V120z M144.004,153.472v37.384c0,2.616,0.152,5.208,0.376,7.784
				c-9.48-3.2-16.376-12.088-16.376-22.64C128.004,165.584,134.716,156.784,144.004,153.472z"/>
		</g>
	</g>
</g>
<g>
</g>
<g>
</g>
<g>
</g>
<g>
</g>
<g>
</g>
<g>
</g>
<g>
</g>
<g>
</g>
<g>
</g>
<g>
</g>
<g>
</g>
<g>
</g>
<g>
</g>
<g>
</g>
<g>
</g>
</svg>
